# xmcd
#
# Track frame offsets:
#	150
#	17455
#	34347
#	62202
#	84204
#	106232
#	131647
#	168275
#	191252
#	208582
#	231552
#	246305
#	265635
#
# Disc length: 4637 seconds
#
# Revision: 1
# Processed by: cddbd v1.5.1PL2 Copyright (c) Steve Scherf et al.
# Submitted via: EasyCDDAExtractor 8.2.2.1
#
DISCID=a9121b0d
DTITLE=Xaviar Rudd - Good Spirit
DYEAR=2005
DGENRE=Blues
TTITLE0=Yirra Kurl
TTITLE1=Messages
TTITLE2=Let Me Be
TTITLE3=A 4th World
TTITLE4=Green Spandex
TTITLE5=The 12th of September
TTITLE6=Conceal Me
TTITLE7=Solace
TTITLE8=Shelter
TTITLE9=GBA
TTITLE10=Chances
TTITLE11=One Short Story
TTITLE12=To Let
EXTD=
EXTT0=
EXTT1=
EXTT2=
EXTT3=
EXTT4=
EXTT5=
EXTT6=
EXTT7=
EXTT8=
EXTT9=
EXTT10=
EXTT11=
EXTT12=
PLAYORDER=
